<svg width="21" height="20" viewBox="0 0 21 20" fill="none" xmlns="http://www.w3.org/2000/svg">
<g id="Users" clip-path="url(#clip0_82_524)">
<path id="Icon" d="M14.7917 17.5V15.8333C14.7917 14.9493 14.4405 14.1014 13.8154 13.4763C13.1902 12.8512 12.3424 12.5 11.4583 12.5H4.79167C3.90761 12.5 3.05976 12.8512 2.43464 13.4763C1.80952 14.1014 1.45833 14.9493 1.45833 15.8333V17.5M19.7917 17.5V15.8333C19.7911 15.0948 19.5453 14.3773 19.0928 13.7936C18.6403 13.2099 18.0068 12.793 17.2917 12.6083M13.9583 2.60833C14.6753 2.79192 15.3109 3.20892 15.7647 3.79359C16.2185 4.37827 16.4649 5.09736 16.4649 5.8375C16.4649 6.57764 16.2185 7.29673 15.7647 7.88141C15.3109 8.46608 14.6753 8.88308 13.9583 9.06667M11.4583 5.83333C11.4583 7.67428 9.96595 9.16667 8.125 9.16667C6.28405 9.16667 4.79167 7.67428 4.79167 5.83333C4.79167 3.99238 6.28405 2.5 8.125 2.5C9.96595 2.5 11.4583 3.99238 11.4583 5.83333Z"  
stroke-width="2" stroke-linecap="round" stroke-linejoin="round"/>
</g>
<defs>
<clipPath id="clip0_82_524">
<rect width="20" height="20" fill="white" transform="translate(0.625)"/>
</clipPath>
</defs>
</svg>
