<svg width="16" height="16" viewBox="0 0 16 16" fill="none" xmlns="http://www.w3.org/2000/svg">
<g id="More horizontal">
<g id="Icon">
<path d="M8.00008 8.66659C8.36827 8.66659 8.66675 8.36811 8.66675 7.99992C8.66675 7.63173 8.36827 7.33325 8.00008 7.33325C7.63189 7.33325 7.33341 7.63173 7.33341 7.99992C7.33341 8.36811 7.63189 8.66659 8.00008 8.66659Z" stroke="currentColor" stroke-width="1.6" stroke-linecap="round" stroke-linejoin="round"/>
<path d="M12.6667 8.66659C13.0349 8.66659 13.3334 8.36811 13.3334 7.99992C13.3334 7.63173 13.0349 7.33325 12.6667 7.33325C12.2986 7.33325 12.0001 7.63173 12.0001 7.99992C12.0001 8.36811 12.2986 8.66659 12.6667 8.66659Z" stroke="currentColor" stroke-width="1.6" stroke-linecap="round" stroke-linejoin="round"/>
<path d="M3.33341 8.66659C3.7016 8.66659 4.00008 8.36811 4.00008 7.99992C4.00008 7.63173 3.7016 7.33325 3.33341 7.33325C2.96522 7.33325 2.66675 7.63173 2.66675 7.99992C2.66675 8.36811 2.96522 8.66659 3.33341 8.66659Z" stroke="currentColor" stroke-width="1.6" stroke-linecap="round" stroke-linejoin="round"/>
</g>
</g>
</svg>
